# xmcd
#
# Track frame offsets:
#	150
#	38280
#	74290
#	108570
#	145335
#	180452
#
# Disc length: 2781 seconds
#
# Revision: 1
# Processed by: cddbd v1.4PL0 Copyright (c) Steve Scherf et al.
# Submitted via: EasyCDDAExtractor 5.0.7
#
DISCID=4a0adb06
DTITLE=Various Artist - Tan Co Giao Duyen - Huong Cau Que Ngoai
DYEAR=1900
DGENRE=VongCo
TTITLE0=Thanh Huyen and Chi Tam - Ly Chieu Chieu
TTITLE1=Huong Lan and Chi Tam - Thuong Qua Viet Nam
TTITLE2=Phuong Mai and Chi Tam - Ly Chim Quyen
TTITLE3=Huong Lan and Chi Tam - Vung Que Tuong Lai
TTITLE4=Thanh Huyen and Chi Tam - Ba Me Que
TTITLE5=Phuong Mai and Chi Tam - Huong Cau Que Ngoai
EXTD=
EXTT0=
EXTT1=
EXTT2=
EXTT3=
EXTT4=
EXTT5=
PLAYORDER=
